<?xml version="1.0" encoding="utf-8"?>
<!-- Generator: Adobe Illustrator 25.2.3, SVG Export Plug-In . SVG Version: 6.00 Build 0)  -->
<svg version="1.1" id="레이어_1" xmlns="http://www.w3.org/2000/svg" xmlns:xlink="http://www.w3.org/1999/xlink" x="0px"
	 y="0px" viewBox="0 0 38 38" style="enable-background:new 0 0 38 38;" xml:space="preserve">
<style type="text/css">
	.st0{opacity:0.2;fill-rule:evenodd;clip-rule:evenodd;}
	.st1{fill-rule:evenodd;clip-rule:evenodd;fill:#FFFFFF;}
	.st2{fill-rule:evenodd;clip-rule:evenodd;fill:#FFFFFF;filter:url(#Adobe_OpacityMaskFilter);}
	.st3{mask:url(#mask0_2_);}
	.st4{fill-rule:evenodd;clip-rule:evenodd;fill:#FFFFFF;filter:url(#Adobe_OpacityMaskFilter_1_);}
	.st5{mask:url(#mask1_2_);}
</style>
<circle class="st0" cx="19" cy="19" r="19"/>
<g>
	<path class="st1" d="M12.83,14.85l0.6,7.17c0.04,0.55,0.49,0.97,1.05,0.97h0H25.4h0c0.52,0,0.97-0.39,1.04-0.9l0.95-6.56
		c0.02-0.16-0.02-0.31-0.11-0.44c-0.09-0.13-0.23-0.21-0.39-0.23C26.68,14.87,18.01,14.85,12.83,14.85z M14.48,24.49
		c-1.32,0-2.43-1.03-2.54-2.34l-0.92-10.89l-1.51-0.26c-0.41-0.07-0.68-0.46-0.61-0.87c0.07-0.41,0.47-0.68,0.87-0.61l2.08,0.36
		c0.34,0.06,0.59,0.34,0.62,0.68l0.23,2.8c14.28,0.01,14.32,0.01,14.39,0.02c0.56,0.08,1.05,0.37,1.38,0.82
		c0.33,0.45,0.47,1,0.39,1.55l-0.95,6.56c-0.18,1.25-1.26,2.19-2.52,2.19H25.4H14.48L14.48,24.49z"/>
	<path class="st1" d="M23.79,18.55h-2.77c-0.42,0-0.75-0.34-0.75-0.75s0.33-0.75,0.75-0.75h2.77c0.41,0,0.75,0.34,0.75,0.75
		S24.21,18.55,23.79,18.55z"/>
	<path class="st1" d="M14.05,27.21c0.3,0,0.54,0.24,0.54,0.54c0,0.3-0.24,0.55-0.54,0.55c-0.3,0-0.55-0.24-0.55-0.55
		C13.5,27.45,13.75,27.21,14.05,27.21z"/>
	<defs>
		<filter id="Adobe_OpacityMaskFilter" filterUnits="userSpaceOnUse" x="8.5" y="22.21" width="11.09" height="11.09">
			<feColorMatrix  type="matrix" values="1 0 0 0 0  0 1 0 0 0  0 0 1 0 0  0 0 0 1 0"/>
		</filter>
	</defs>
	<mask maskUnits="userSpaceOnUse" x="8.5" y="22.21" width="11.09" height="11.09" id="mask0_2_">
		<path class="st2" d="M13.5,27.75c0,0.3,0.24,0.55,0.55,0.55c0.3,0,0.54-0.24,0.54-0.55c0-0.3-0.24-0.54-0.54-0.54
			C13.75,27.21,13.5,27.45,13.5,27.75z"/>
	</mask>
	<g class="st3">
		<path class="st1" d="M8.5,33.29h11.09V22.21H8.5V33.29z"/>
	</g>
	<path class="st1" d="M14.05,27.55c-0.11,0-0.2,0.09-0.2,0.2c0,0.23,0.41,0.23,0.41,0C14.25,27.64,14.16,27.55,14.05,27.55z
		 M14.05,29.05c-0.71,0-1.29-0.58-1.29-1.3s0.58-1.29,1.29-1.29s1.3,0.58,1.3,1.29S14.76,29.05,14.05,29.05z"/>
	<path class="st1" d="M25.33,27.21c0.3,0,0.55,0.24,0.55,0.54c0,0.3-0.24,0.55-0.55,0.55c-0.3,0-0.55-0.24-0.55-0.55
		C24.78,27.45,25.03,27.21,25.33,27.21z"/>
	<defs>
		<filter id="Adobe_OpacityMaskFilter_1_" filterUnits="userSpaceOnUse" x="19.78" y="22.21" width="11.09" height="11.09">
			<feColorMatrix  type="matrix" values="1 0 0 0 0  0 1 0 0 0  0 0 1 0 0  0 0 0 1 0"/>
		</filter>
	</defs>
	<mask maskUnits="userSpaceOnUse" x="19.78" y="22.21" width="11.09" height="11.09" id="mask1_2_">
		<path class="st4" d="M24.78,27.75c0,0.3,0.24,0.55,0.55,0.55c0.3,0,0.55-0.24,0.55-0.55c0-0.3-0.25-0.54-0.55-0.54
			C25.03,27.21,24.78,27.45,24.78,27.75z"/>
	</mask>
	<g class="st5">
		<path class="st1" d="M19.78,33.29h11.09V22.21H19.78V33.29z"/>
	</g>
	<path class="st1" d="M25.33,27.55c-0.11,0-0.2,0.09-0.2,0.2c0,0.23,0.41,0.23,0.41,0C25.53,27.64,25.44,27.55,25.33,27.55z
		 M25.33,29.05c-0.71,0-1.29-0.58-1.29-1.3s0.58-1.29,1.29-1.29c0.72,0,1.3,0.58,1.3,1.29S26.04,29.05,25.33,29.05z"/>
</g>
</svg>
