<?xml version="1.0" encoding="utf-8"?>
<!-- Generator: Adobe Illustrator 25.2.3, SVG Export Plug-In . SVG Version: 6.00 Build 0)  -->
<svg version="1.1" id="레이어_1" xmlns="http://www.w3.org/2000/svg" xmlns:xlink="http://www.w3.org/1999/xlink" x="0px"
	 y="0px" viewBox="0 0 38 38" style="enable-background:new 0 0 38 38;" xml:space="preserve">
<style type="text/css">
	.st0{opacity:0.4;fill-rule:evenodd;clip-rule:evenodd;enable-background:new    ;}
	.st1{fill-rule:evenodd;clip-rule:evenodd;fill:#FFFFFF;}
</style>
<circle class="st0" cx="19" cy="19" r="19"/>
<g>
	<path class="st1" d="M12.8,14.9l0.6,7.2c0,0.5,0.5,1,1.1,1l0,0h10.9l0,0c0.5,0,1-0.4,1-0.9l1-6.6c0-0.2,0-0.3-0.1-0.4
		c-0.1-0.1-0.2-0.2-0.4-0.2C26.7,14.9,18,14.9,12.8,14.9z M14.5,24.5c-1.3,0-2.4-1-2.5-2.3L11,11.3L9.5,11c-0.4-0.1-0.7-0.5-0.6-0.9
		C9,9.7,9.4,9.4,9.8,9.5l2.1,0.4c0.3,0.1,0.6,0.3,0.6,0.7l0.2,2.8c14.3,0,14.3,0,14.4,0c0.6,0.1,1,0.4,1.4,0.8s0.5,1,0.4,1.6l-1,6.6
		c-0.2,1.2-1.3,2.2-2.5,2.2h0L14.5,24.5L14.5,24.5z"/>
	<path class="st1" d="M23.8,18.5H21c-0.4,0-0.8-0.3-0.8-0.8S20.6,17,21,17h2.8c0.4,0,0.8,0.3,0.8,0.8S24.2,18.5,23.8,18.5z"/>
	<path class="st1" d="M14.1,27.2c0.3,0,0.5,0.2,0.5,0.5c0,0.3-0.2,0.5-0.5,0.5s-0.6-0.2-0.6-0.5C13.5,27.5,13.8,27.2,14.1,27.2z"/>
	<path class="st1" d="M14.1,27.5c-0.1,0-0.2,0.1-0.2,0.2c0,0.2,0.4,0.2,0.4,0C14.2,27.6,14.2,27.5,14.1,27.5z M14.1,29
		c-0.7,0-1.3-0.6-1.3-1.3s0.6-1.3,1.3-1.3s1.3,0.6,1.3,1.3S14.8,29,14.1,29z"/>
	<path class="st1" d="M25.3,27.2c0.3,0,0.5,0.2,0.5,0.5c0,0.3-0.2,0.5-0.5,0.5c-0.3,0-0.5-0.2-0.5-0.5C24.8,27.5,25,27.2,25.3,27.2z
		"/>
	<path class="st1" d="M25.3,27.5c-0.1,0-0.2,0.1-0.2,0.2c0,0.2,0.4,0.2,0.4,0C25.5,27.6,25.4,27.5,25.3,27.5z M25.3,29
		c-0.7,0-1.3-0.6-1.3-1.3s0.6-1.3,1.3-1.3c0.7,0,1.3,0.6,1.3,1.3S26,29,25.3,29z"/>
</g>
</svg>
