<svg xmlns="http://www.w3.org/2000/svg" width="24" height="24" viewBox="0 0 24 24">
    <g fill="none" fill-rule="evenodd">
        <path fill="#FFF" fill-opacity="0" d="M0 0h24v24H0z"/>
        <path fill="#46433F" stroke="#46433F" stroke-width=".3" d="M4.169 4.169a.577.577 0 0 1 .815 0L12 11.184l7.016-7.015a.577.577 0 1 1 .815.815L12.816 12l7.015 7.016c.2.2.223.51.067.735l-.067.08a.577.577 0 0 1-.815 0L12 12.816l-7.016 7.015a.577.577 0 1 1-.815-.815L11.184 12 4.169 4.984a.577.577 0 0 1-.067-.735z"/>
    </g>
</svg>
