<?xml version="1.0" encoding="utf-8"?>
<!-- Generator: Adobe Illustrator 25.2.3, SVG Export Plug-In . SVG Version: 6.00 Build 0)  -->
<svg version="1.1" id="레이어_1" xmlns="http://www.w3.org/2000/svg" xmlns:xlink="http://www.w3.org/1999/xlink" x="0px"
	 y="0px" viewBox="0 0 21 20" style="enable-background:new 0 0 21 20;" xml:space="preserve">
<style type="text/css">
	.st0{fill-rule:evenodd;clip-rule:evenodd;fill:#FFFFFF;filter:url(#Adobe_OpacityMaskFilter);}
	.st1{mask:url(#mask0_1_);}
	.st2{fill-rule:evenodd;clip-rule:evenodd;fill:#F55A04;}
</style>
<g>
	<defs>
		<filter id="Adobe_OpacityMaskFilter" filterUnits="userSpaceOnUse" x="0" y="0" width="20.5" height="19.5">
			<feColorMatrix  type="matrix" values="1 0 0 0 0  0 1 0 0 0  0 0 1 0 0  0 0 0 1 0"/>
		</filter>
	</defs>
	<mask maskUnits="userSpaceOnUse" x="0" y="0" width="20.5" height="19.5" id="mask0_1_">
		<path class="st0" d="M0,0h20.5v19.5H0V0z"/>
	</mask>
	<g class="st1">
		<path class="st2" d="M1.8,9.1c1.4,4.4,6.9,7.9,8.4,8.8c1.5-0.9,7.1-4.4,8.4-8.8c0.9-2.8,0.1-6.3-3.2-7.4c-1.6-0.5-3.4-0.2-4.7,0.8
			c-0.3,0.2-0.6,0.2-0.9,0C8.4,1.5,6.7,1.2,5,1.8C1.8,2.8,0.9,6.3,1.8,9.1z M10.2,19.5c-0.1,0-0.2,0-0.4-0.1
			c-0.3-0.2-7.7-4.2-9.5-9.8c0,0,0,0,0,0c-1.1-3.5,0.1-7.9,4.2-9.3C6.5-0.3,8.6,0,10.2,1c1.6-1,3.8-1.3,5.7-0.7
			c4.1,1.3,5.3,5.7,4.2,9.3c-1.7,5.5-9.2,9.7-9.5,9.8C10.5,19.5,10.4,19.5,10.2,19.5z"/>
	</g>
	<path class="st2" d="M10.4,1.8L8.4,1.5c0,0-3.2,0-3.3,0c-0.1,0-3.1,2.2-3.1,2.2L1.1,7.5l1.5,4.9l3.7,3.8l3.6,2.6l2-0.6l3.4-2.8
		l4.2-5.3L19.8,6l-1.6-3.3L15,1.3h-2.8L10.4,1.8z"/>
</g>
</svg>
