<svg width="16" height="20" viewBox="0 0 16 20" fill="none" xmlns="http://www.w3.org/2000/svg">
<mask id="mask0" mask-type="alpha" maskUnits="userSpaceOnUse" x="0" y="12" width="16" height="8">
<path fill-rule="evenodd" clip-rule="evenodd" d="M0 12.4961H15.8399V19.8701H0V12.4961Z" fill="white"/>
</mask>
<g mask="url(#mask0)">
<path fill-rule="evenodd" clip-rule="evenodd" d="M7.92088 13.9961C3.65988 13.9961 1.49988 14.7281 1.49988 16.1731C1.49988 17.6311 3.65988 18.3701 7.92088 18.3701C12.1809 18.3701 14.3399 17.6381 14.3399 16.1931C14.3399 14.7351 12.1809 13.9961 7.92088 13.9961ZM7.92088 19.8701C5.96188 19.8701 -0.00012207 19.8701 -0.00012207 16.1731C-0.00012207 12.8771 4.52088 12.4961 7.92088 12.4961C9.87988 12.4961 15.8399 12.4961 15.8399 16.1931C15.8399 19.4891 11.3199 19.8701 7.92088 19.8701Z" fill="#45433f"/>
</g>
<mask id="mask1" mask-type="alpha" maskUnits="userSpaceOnUse" x="2" y="0" width="12" height="11">
<path fill-rule="evenodd" clip-rule="evenodd" d="M2.60986 0.00012207H13.2299V10.6187H2.60986V0.00012207Z" fill="white"/>
</mask>
<g mask="url(#mask1)">
<path fill-rule="evenodd" clip-rule="evenodd" d="M7.92089 1.42776C5.77989 1.42776 4.03789 3.16876 4.03789 5.30976C4.03089 7.44376 5.75989 9.18376 7.89189 9.19176L7.92089 9.90576V9.19176C10.0609 9.19176 11.8019 7.44976 11.8019 5.30976C11.8019 3.16876 10.0609 1.42776 7.92089 1.42776ZM7.92089 10.6188H7.8889C4.9669 10.6098 2.59989 8.22676 2.60989 5.30676C2.60989 2.38176 4.99189 -0.000244141 7.92089 -0.000244141C10.8489 -0.000244141 13.2299 2.38176 13.2299 5.30976C13.2299 8.23776 10.8489 10.6188 7.92089 10.6188Z" fill="#130F26"/>
</g>
</svg>
